<?xml version="1.0" encoding="UTF-8" standalone="no"?>
<!-- Created with Inkscape (http://www.inkscape.org/) -->

<svg
   width="64pt"
   height="64pt"
   viewBox="0 0 22.577778 22.577778"
   version="1.1"
   id="svg831"
   inkscape:version="1.1.1 (3bf5ae0d25, 2021-09-20)"
   sodipodi:docname="Export.svg"
   inkscape:export-filename="C:\Users\User\Desktop\CARLOS PROJECT\5. MAY 1\Done\Flat\03 - Treadmill.png"
   inkscape:export-xdpi="576"
   inkscape:export-ydpi="576"
   xmlns:inkscape="http://www.inkscape.org/namespaces/inkscape"
   xmlns:sodipodi="http://sodipodi.sourceforge.net/DTD/sodipodi-0.dtd"
   xmlns="http://www.w3.org/2000/svg"
   xmlns:svg="http://www.w3.org/2000/svg"
   xmlns:rdf="http://www.w3.org/1999/02/22-rdf-syntax-ns#"
   xmlns:cc="http://creativecommons.org/ns#"
   xmlns:dc="http://purl.org/dc/elements/1.1/">
  <defs
     id="defs825">
    <pattern
       id="EMFhbasepattern"
       patternUnits="userSpaceOnUse"
       width="6"
       height="6"
       x="0"
       y="0" />
    <pattern
       id="EMFhbasepattern-9"
       patternUnits="userSpaceOnUse"
       width="6"
       height="6"
       x="0"
       y="0" />
    <pattern
       id="EMFhbasepattern-0"
       patternUnits="userSpaceOnUse"
       width="6"
       height="6"
       x="0"
       y="0" />
    <pattern
       id="EMFhbasepattern-7"
       patternUnits="userSpaceOnUse"
       width="6"
       height="6"
       x="0"
       y="0" />
    <pattern
       id="EMFhbasepattern-2"
       patternUnits="userSpaceOnUse"
       width="6"
       height="6"
       x="0"
       y="0" />
    <pattern
       id="EMFhbasepattern-98"
       patternUnits="userSpaceOnUse"
       width="6"
       height="6"
       x="0"
       y="0" />
    <pattern
       id="EMFhbasepattern-6"
       patternUnits="userSpaceOnUse"
       width="6"
       height="6"
       x="0"
       y="0" />
    <pattern
       id="EMFhbasepattern-01"
       patternUnits="userSpaceOnUse"
       width="6"
       height="6"
       x="0"
       y="0" />
    <pattern
       id="EMFhbasepattern-07"
       patternUnits="userSpaceOnUse"
       width="6"
       height="6"
       x="0"
       y="0" />
    <pattern
       id="EMFhbasepattern-8"
       patternUnits="userSpaceOnUse"
       width="6"
       height="6"
       x="0"
       y="0" />
    <pattern
       id="EMFhbasepattern-4"
       patternUnits="userSpaceOnUse"
       width="6"
       height="6"
       x="0"
       y="0" />
    <pattern
       id="EMFhbasepattern-40"
       patternUnits="userSpaceOnUse"
       width="6"
       height="6"
       x="0"
       y="0" />
    <pattern
       id="EMFhbasepattern-08"
       patternUnits="userSpaceOnUse"
       width="6"
       height="6"
       x="0"
       y="0" />
    <pattern
       id="EMFhbasepattern-04"
       patternUnits="userSpaceOnUse"
       width="6"
       height="6"
       x="0"
       y="0" />
    <pattern
       id="EMFhbasepattern-014"
       patternUnits="userSpaceOnUse"
       width="6"
       height="6"
       x="0"
       y="0" />
    <pattern
       id="EMFhbasepattern-27"
       patternUnits="userSpaceOnUse"
       width="6"
       height="6"
       x="0"
       y="0" />
    <pattern
       id="EMFhbasepattern-09"
       patternUnits="userSpaceOnUse"
       width="6"
       height="6"
       x="0"
       y="0" />
    <pattern
       id="EMFhbasepattern-5"
       patternUnits="userSpaceOnUse"
       width="6"
       height="6"
       x="0"
       y="0" />
    <pattern
       id="EMFhbasepattern-018"
       patternUnits="userSpaceOnUse"
       width="6"
       height="6"
       x="0"
       y="0" />
  </defs>
  <sodipodi:namedview
     id="base"
     pagecolor="#ffffff"
     bordercolor="#666666"
     borderopacity="1.0"
     inkscape:pageopacity="0.0"
     inkscape:pageshadow="2"
     inkscape:zoom="6.5876941"
     inkscape:cx="28.082664"
     inkscape:cy="49.258511"
     inkscape:document-units="pt"
     inkscape:current-layer="layer1"
     showgrid="false"
     units="pt"
     inkscape:window-width="1920"
     inkscape:window-height="1001"
     inkscape:window-x="-9"
     inkscape:window-y="-9"
     inkscape:window-maximized="1"
     inkscape:pagecheckerboard="true"
     inkscape:showpageshadow="false"
     inkscape:object-paths="true"
     inkscape:snap-intersection-paths="true"
     inkscape:snap-smooth-nodes="true"
     inkscape:snap-midpoints="true"
     showguides="true"
     inkscape:snap-bbox="true"
     inkscape:bbox-nodes="true"
     inkscape:snap-nodes="false"
     inkscape:snap-global="true">
    <inkscape:grid
       type="xygrid"
       id="grid1378" />
    <sodipodi:guide
       position="0.97013831,21.607643"
       orientation="78.000048,0"
       id="guide1380"
       inkscape:locked="false" />
    <sodipodi:guide
       position="0.97013831,0.97013129"
       orientation="0,78.000005"
       id="guide1382"
       inkscape:locked="false" />
    <sodipodi:guide
       position="21.607639,0.97013129"
       orientation="-78.000048,0"
       id="guide1384"
       inkscape:locked="false" />
    <sodipodi:guide
       position="21.607639,21.607643"
       orientation="0,-78.000005"
       id="guide1386"
       inkscape:locked="false" />
  </sodipodi:namedview>
  <metadata
     id="metadata828">
    <rdf:RDF>
      <cc:Work
         rdf:about="">
        <dc:format>image/svg+xml</dc:format>
        <dc:type
           rdf:resource="http://purl.org/dc/dcmitype/StillImage" />
      </cc:Work>
    </rdf:RDF>
  </metadata>
  <g
     inkscape:label="Icon"
     inkscape:groupmode="layer"
     id="layer1"
     transform="translate(0,-274.42223)">
    <g
       id="g109046"
       style="display:inline;stroke-width:0.800856"
       transform="matrix(1.2486638,0,0,1.2486638,-37.369481,-36.479736)">
      <path
         style="color:#000000;fill:#a3b9c9;fill-opacity:1;stroke-width:0.800856;stroke-linecap:round;stroke-linejoin:round;-inkscape-stroke:none"
         d="m 35.386721,255.34581 4.041015,-4.0664 -1.878908,-0.36719 -2.537109,2.55859 z"
         id="path61843"
         sodipodi:nodetypes="ccccc" />
      <path
         id="path64456"
         style="color:#000000;fill:#97abba;fill-opacity:1;stroke-width:3.02686;stroke-linecap:round;stroke-linejoin:round;-inkscape-stroke:none"
         d="m 148.30273,-110.50781 -5.67773,0.0234 a 1.0001006,1.0001006 0 0 0 -0.70898,0.29493 l -3.64258,3.67383 h 8.4707 l 2.27344,-2.28711 a 1.0001006,1.0001006 0 0 0 -0.71485,-1.70508 z"
         transform="matrix(0.26458334,0,0,0.26458334,0,280.06666)" />
      <path
         id="path426723"
         style="color:#000000;fill:#97abba;fill-opacity:1;stroke-width:0.800856;stroke-linecap:round;stroke-linejoin:round;-inkscape-stroke:none"
         d="m 38.898402,251.2792 -3.94498,3.96978 c 0.0669,0.17937 0.296257,0.23054 0.433049,0.0966 l 4.041098,-4.06642 z"
         sodipodi:nodetypes="ccccc" />
      <path
         id="path48361"
         style="color:#000000;fill:#97abba;fill-opacity:1;stroke-width:0.800856;stroke-linecap:round;stroke-linejoin:round;-inkscape-stroke:none"
         d="m 35.992118,252.48229 -0.980302,0.98857 a 0.26460996,0.26460996 0 0 0 -0.07648,0.18552 v 1.50172 a 0.26460996,0.26460996 0 0 0 0.451135,0.18758 l 0.605647,-0.60926 z" />
      <path
         style="color:#000000;fill:#b01d47;stroke-width:0.800856;stroke-linecap:round;stroke-linejoin:round;-inkscape-stroke:none"
         d="m 39.234375,264.44922 a 0.26460996,0.26460996 0 0 0 -0.265625,0.26367 c 0,0.26867 0.07644,0.56092 0.201172,0.82422 0.123815,0.26136 0.361879,0.41471 0.607422,0.5293 0.245542,0.11458 0.507596,0.18441 0.736328,0.20117 0.484793,0.0351 1.058521,0.0321 1.541015,-0.004 0.228012,-0.017 0.490486,-0.0835 0.736329,-0.19726 0.245842,-0.11378 0.485352,-0.26746 0.609375,-0.5293 0.124711,-0.26328 0.199218,-0.55557 0.199218,-0.82422 a 0.26460996,0.26460996 0 0 0 -0.263672,-0.26367 z"
         id="path83621" />
      <path
         id="path438005"
         style="color:#000000;fill:#801231;fill-opacity:1;stroke-width:3.02686;stroke-linecap:round;stroke-linejoin:round;-inkscape-stroke:none"
         d="m 148.28711,-59.027344 a 1.0001006,1.0001006 0 0 0 -1.00391,0.998047 c 0,0.982653 0.27016,2.047928 0.71485,3.017578 0.37753,0.21395 0.78765,0.376278 1.22656,0.472657 4.58833,1.007281 9.03861,1.007319 13.62695,0 0.43833,-0.09624 0.84796,-0.259126 1.22461,-0.472657 0.4446,-0.969997 0.70899,-2.036438 0.70899,-3.019531 a 1.0001006,1.0001006 0 0 0 -0.9961,-0.996094 z"
         transform="matrix(0.26458334,0,0,0.26458334,0,280.06666)" />
      <path
         style="color:#000000;fill:#143441;stroke-width:0.800856;stroke-linecap:round;stroke-linejoin:round;-inkscape-stroke:none"
         d="m 42.078125,250.82617 a 0.2645835,0.2645835 0 0 0 -0.263672,0.26563 v 1.32226 c 0,0.29539 -0.233911,0.5293 -0.529297,0.5293 -0.295386,0 -0.529297,-0.23391 -0.529297,-0.5293 a 0.2645835,0.2645835 0 0 0 -0.265625,-0.26562 0.2645835,0.2645835 0 0 0 -0.263672,0.26562 c 0,0.58137 0.477229,1.0586 1.058594,1.0586 0.581366,0 1.058594,-0.47723 1.058594,-1.0586 v -1.32226 a 0.2645835,0.2645835 0 0 0 -0.265625,-0.26563 z"
         id="path38702" />
      <path
         style="color:#000000;fill:#c8dae5;stroke-width:0.800856;stroke-linecap:round;stroke-linejoin:round;-inkscape-stroke:none"
         d="m 34.140625,249.76758 a 0.26460996,0.26460996 0 0 0 -0.1875,0.45312 l 1.058594,1.05664 a 0.26460996,0.26460996 0 0 0 0.1875,0.0781 h 7.144531 c 0.261817,0 0.502053,-0.14865 0.619141,-0.38281 l 0.292968,-0.58594 c 0.137368,-0.27475 -0.07563,-0.61914 -0.382812,-0.61914 z"
         id="path61455" />
      <path
         id="path430019"
         style="color:#000000;fill:#032927;fill-opacity:1;stroke-width:3.02686;stroke-linecap:round;stroke-linejoin:round;-inkscape-stroke:none"
         d="m 159.03516,-110.51562 a 1.0000006,1.0000006 0 0 0 -0.9961,1.0039 v 2.9961 h 2 v -2.9961 a 1.0000006,1.0000006 0 0 0 -1.0039,-1.0039 z"
         transform="matrix(0.26458334,0,0,0.26458334,0,280.06666)" />
      <path
         id="path428017"
         style="color:#000000;fill:#a3b9c9;fill-opacity:1;stroke-width:0.800856;stroke-linecap:round;stroke-linejoin:round;-inkscape-stroke:none"
         d="m 35.199369,251.35553 h 7.144266 c 0.261818,0 0.501997,-0.14824 0.619085,-0.3824 l 0.293005,-0.58601 c 0.137367,-0.27475 -0.07574,-0.61909 -0.382923,-0.61909 l -0.114171,-3e-4 c -0.08303,0.2289 -0.203104,0.45542 -0.325044,0.67591 -0.117089,0.23416 -0.357267,0.38241 -0.619086,0.38241 h -7.144266 z"
         sodipodi:nodetypes="cscccccscc" />
      <path
         style="color:#000000;fill:#c8dae5;stroke-width:0.800856;stroke-linecap:round;stroke-linejoin:round;-inkscape-stroke:none"
         d="m 34.039062,249.78906 a 0.26460996,0.26460996 0 0 0 -0.162109,0.24414 v 6.87891 a 0.26460996,0.26460996 0 0 0 0.263672,0.26367 h 1.058594 a 0.26460996,0.26460996 0 0 0 0.263672,-0.26367 v -5.82031 a 0.26460996,0.26460996 0 0 0 -0.07617,-0.1875 l -1.058594,-1.0586 a 0.26460996,0.26460996 0 0 0 -0.289063,-0.0566 z"
         id="path61651" />
      <path
         id="path424016"
         style="color:#000000;fill:#a3b9c9;fill-opacity:1;stroke-width:0.800856;stroke-linecap:round;stroke-linejoin:round;-inkscape-stroke:none"
         d="m 34.039266,249.78888 c -0.09844,0.0413 -0.162431,0.13768 -0.162264,0.24443 v 0.41962 l 0.980303,0.9803 c 0.04937,0.0499 0.07688,0.11738 0.07648,0.18758 v 5.5547 h 0.265618 c 0.145309,-5.8e-4 0.262963,-0.11823 0.263549,-0.26354 v -5.82032 c 4e-4,-0.0702 -0.02711,-0.13768 -0.07648,-0.18759 l -1.058333,-1.05833 c -0.118066,-0.10591 -0.206777,-0.0884 -0.288873,-0.0568 z"
         sodipodi:nodetypes="cccccccccccc" />
      <path
         style="color:#000000;fill:#143441;fill-opacity:1;stroke-width:0.800856;stroke-linecap:round;stroke-linejoin:round;-inkscape-stroke:none"
         d="m 41.285156,252.41406 a 0.2645835,0.2645835 0 0 0 -0.265625,0.26367 v 1.58789 a 0.2645835,0.2645835 0 0 0 0.265625,0.26563 0.2645835,0.2645835 0 0 0 0.263672,-0.26563 v -1.58789 a 0.2645835,0.2645835 0 0 0 -0.263672,-0.26367 z"
         id="path39025" />
      <path
         id="path40205"
         style="color:#000000;fill:#143441;fill-opacity:1;stroke-width:0.800856;stroke-linecap:round;stroke-linejoin:round;-inkscape-stroke:none"
         d="m 41.091548,254.08427 -2.115116,2.23242 c -0.101339,0.10614 -0.09694,0.27447 0.0098,0.37517 0.106014,0.0998 0.272759,0.0952 0.373104,-0.0103 l 1.924947,-2.0314 1.924429,2.0314 c 0.100559,0.10689 0.268899,0.11151 0.375171,0.0103 0.106741,-0.1007 0.111139,-0.26903 0.0098,-0.37517 l -2.105813,-2.22002 c -0.146447,-0.13312 -0.241071,-0.0855 -0.396322,-0.0124 z"
         sodipodi:nodetypes="cccccccccc" />
      <path
         style="color:#000000;fill:#dc1c4b;stroke-width:0.800856;stroke-linecap:round;stroke-linejoin:round;-inkscape-stroke:none"
         d="m 39.482422,256.05469 c -0.577676,0.12681 -0.976563,0.67906 -0.976563,1.2539 v 6.54493 c 0,0.57484 0.398889,1.12705 0.976563,1.2539 1.213997,0.26651 2.391469,0.26652 3.605469,0 0.57767,-0.12683 0.974609,-0.67907 0.974609,-1.2539 v -6.54493 c 0,-0.57484 -0.396934,-1.12706 -0.974609,-1.2539 -1.213995,-0.2665 -2.391471,-0.26652 -3.605469,0 z"
         id="path81577" />
      <path
         style="color:#000000;fill:#b01d47;fill-opacity:1;stroke-width:0.800856;stroke-linecap:round;stroke-linejoin:round;-inkscape-stroke:none"
         d="m 39.595703,256.98828 a 0.2645835,0.2645835 0 0 0 -0.316406,0.20117 0.2645835,0.2645835 0 0 0 0.203125,0.31641 c 0.239745,0.0526 0.477225,0.095 0.714844,0.12695 a 0.2645835,0.2645835 0 0 0 0.296875,-0.22851 0.2645835,0.2645835 0 0 0 -0.226563,-0.29688 c -0.222609,-0.0299 -0.445723,-0.0695 -0.671875,-0.11914 z"
         id="path421161" />
      <path
         style="color:#000000;fill:#a3b9c9;stroke-width:0.800856;stroke-linecap:round;stroke-linejoin:round;-inkscape-stroke:none"
         d="m 34.40625,256.64648 c -0.289114,0 -0.529293,0.24019 -0.529297,0.5293 v 1.58789 c 4e-6,0.28912 0.240183,0.5293 0.529297,0.5293 h 0.529297 c 0.435232,0 0.792971,-0.35774 0.792969,-0.79297 v -1.32422 c 3e-6,-0.28912 -0.240177,-0.52929 -0.529297,-0.5293 z"
         id="path62035" />
      <path
         id="path72889"
         style="color:#000000;fill:#b01d47;fill-opacity:1;stroke-width:3.02686;stroke-linecap:round;stroke-linejoin:round;-inkscape-stroke:none"
         d="m 166.53516,-68.335938 c -0.79832,0.582785 -1.66422,1.032921 -2.57618,1.373047 -2.10255,0.784177 -4.41719,0.985381 -6.37109,0.97461 -1.9539,-0.01134 -3.42779,-0.236328 -4.31836,-0.236328 a 1.0000006,1.0000006 0 0 0 -1.00391,1.003906 1.0000006,1.0000006 0 0 0 1.00391,0.998047 c 0.4454,0 2.2176,0.224611 4.3125,0.236328 2.0949,0.01134 4.62805,-0.190621 7.07031,-1.101563 0.63771,-0.237839 1.26999,-0.528071 1.88282,-0.875 z m -21.00196,3.619141 v 2.470703 c 0.78336,0.500117 1.60494,0.900426 2.4375,1.210938 2.44227,0.910866 4.97542,1.113128 7.07032,1.101562 2.0949,-0.01134 3.8671,-0.236328 4.3125,-0.236328 a 1.0000006,1.0000006 0 0 0 1.0039,-0.998047 1.0000006,1.0000006 0 0 0 -1.0039,-1.003906 c -0.89057,0 -2.36446,0.225745 -4.31836,0.236328 -1.95391,0.01134 -4.26854,-0.190282 -6.3711,-0.974609 -1.12667,-0.420188 -2.18855,-0.999725 -3.13086,-1.806641 z"
         transform="matrix(0.26458334,0,0,0.26458334,0,280.06666)" />
      <path
         id="path421001"
         style="color:#000000;fill:#b01d47;fill-opacity:1;stroke-width:3.02686;stroke-linecap:round;stroke-linejoin:round;-inkscape-stroke:none"
         d="m 165.54883,-88.96875 c -0.0228,0.02284 -0.0451,0.04588 -0.0684,0.06836 -0.78202,0.755301 -1.85563,1.288678 -3.03516,1.652344 -2.35906,0.727332 -5.07141,0.724724 -6.41406,0.730469 a 1.0000006,1.0000006 0 0 0 -0.99609,1.003906 1.0000006,1.0000006 0 0 0 1.0039,0.998047 c 1.31106,-0.0038 4.23582,0.03311 6.99805,-0.820313 1.1962,-0.368791 2.37663,-0.910838 3.37891,-1.732421 -0.15324,-0.686941 -0.45103,-1.33781 -0.86719,-1.900391 z"
         transform="matrix(0.26458334,0,0,0.26458334,0,280.06666)" />
      <path
         id="path434318"
         style="color:#000000;fill:#b01d47;fill-opacity:1;stroke-width:0.800856;stroke-linecap:round;stroke-linejoin:round;-inkscape-stroke:none"
         d="m 41.285336,255.8547 c -0.597869,0 -1.195991,0.0667 -1.80299,0.19999 -0.359635,0.0789 -0.649581,0.32306 -0.81752,0.63458 0.08982,-0.0469 0.186108,-0.083 0.288353,-0.10541 1.213998,-0.26652 2.391468,-0.2665 3.605464,0 0.577675,0.12684 0.974619,0.67883 0.974619,1.25367 v 6.54533 c 0,0.21698 -0.05664,0.43072 -0.158131,0.6196 0.417783,-0.21772 0.687298,-0.67529 0.687298,-1.14876 v -6.54534 c 0,-0.57484 -0.396944,-1.12683 -0.974619,-1.25367 -0.606997,-0.13325 -1.204606,-0.19999 -1.802474,-0.19999 z" />
      <path
         id="path435807"
         style="color:#000000;fill:#801231;fill-opacity:1;stroke-width:3.02686;stroke-linecap:round;stroke-linejoin:round;-inkscape-stroke:none"
         d="m 165.54883,-88.96875 c -0.74913,0.660361 -1.64874,1.1841 -2.43364,1.488282 0.47627,0.488081 0.84973,1.076873 1.09375,1.716797 0.78289,-0.331502 1.5353,-0.75406 2.20704,-1.304687 -0.1958,-0.748306 -0.44154,-1.370934 -0.86719,-1.900391 z"
         transform="matrix(0.26458334,0,0,0.26458334,0,280.06666)"
         sodipodi:nodetypes="cccccc" />
      <path
         id="path437140"
         style="color:#000000;fill:#801231;fill-opacity:1;stroke-width:3.02686;stroke-linecap:round;stroke-linejoin:round;-inkscape-stroke:none"
         d="m 166.53516,-68.335938 c -0.62841,0.458744 -1.29835,0.835223 -2,1.140626 v 2.148437 c 0.039,-0.01416 0.0782,-0.02649 0.11718,-0.04102 0.63771,-0.237839 1.26999,-0.528071 1.88282,-0.875 z"
         transform="matrix(0.26458334,0,0,0.26458334,0,280.06666)" />
    </g>
  </g>
</svg>
