<?xml version="1.0" encoding="utf-8"?>
<!-- Svg Vector Icons : http://www.onlinewebfonts.com/icon -->
<!DOCTYPE svg PUBLIC "-//W3C//DTD SVG 1.1//EN" "http://www.w3.org/Graphics/SVG/1.1/DTD/svg11.dtd">
<svg version="1.1" xmlns="http://www.w3.org/2000/svg" xmlns:xlink="http://www.w3.org/1999/xlink" x="0px" y="0px" viewBox="0 0 1000 1000" enable-background="new 0 0 1000 1000" xml:space="preserve">
<metadata> Svg Vector Icons : http://www.onlinewebfonts.com/icon </metadata>
<g><g transform="matrix(1 0 0 -1 0 800)"><path d="M554.6,716v-72.9h-49.4V790h54.1l29.4-54.1l34.1,54.1h49.4V643.1h-49.4V716l-34.1-54.1L554.6,716z M813.2,643.1H695.6V790H745v-98.7h68.2V643.1z M392.5,643.1v97.5h-44.7V790h137.5v-49.4h-43.5v-97.5H392.5z M236.2,691.3v-48.2h-49.4V790h49.4v-49.4h43.5V790H329V643.1h-49.4v48.2H236.2z M157.5,593.8h685.1l-58.8-705L500.6-190l-284.4,78.7L157.5,593.8z M710.9,368.2l9.4,83.4H279.7l24.7-259.7h303.2l-9.4-112.8l-97.5-23.5l-98.7,23.5l-4.7,74h-88.1l15.3-142.2l176.3-49.4l176.3,49.4L700.3,280H387.8l-9.4,88.1H710.9z"/></g></g>
</svg>