<?xml version="1.0" encoding="utf-8"?>
<!-- Svg Vector Icons : http://www.onlinewebfonts.com/icon -->
<!DOCTYPE svg PUBLIC "-//W3C//DTD SVG 1.1//EN" "http://www.w3.org/Graphics/SVG/1.1/DTD/svg11.dtd">
<svg version="1.1" xmlns="http://www.w3.org/2000/svg" xmlns:xlink="http://www.w3.org/1999/xlink" x="0px" y="0px" viewBox="0 0 1000 1000" enable-background="new 0 0 1000 1000" xml:space="preserve">
<metadata> Svg Vector Icons : http://www.onlinewebfonts.com/icon </metadata>
<g><path d="M867.2,204.3c0-0.1,0-0.1,0-0.2c0-0.6-0.1-1.3-0.2-1.9c0-0.1,0-0.2,0-0.3c-0.4-3-1.2-5.8-2.4-8.4c0,0,0,0,0,0c-0.6-1.3-1.3-2.6-2-3.8c-0.1-0.1-0.2-0.3-0.3-0.4c-0.3-0.5-0.7-1-1-1.5c-0.1-0.2-0.3-0.4-0.4-0.5c-0.3-0.3-0.5-0.7-0.8-1c-0.2-0.2-0.4-0.5-0.6-0.7c-0.2-0.2-0.4-0.4-0.6-0.7c-0.2-0.2-0.4-0.5-0.7-0.7l-168-165c-4.8-4.8-11.1-8.1-18.2-8.9c0,0,0,0-0.1,0c-0.7-0.1-1.4-0.1-2.1-0.2c-0.2,0-0.3,0-0.5,0c-0.3,0-0.6,0-1,0h-505c-16.9,0-30.6,13.7-30.6,30.6v918.8c0,16.9,13.7,30.6,30.6,30.6h673.3c16.9,0,30.6-13.7,30.6-30.6V206C867.3,205.4,867.2,204.9,867.2,204.3z M698.9,113.6l62.9,61.8h-62.9V113.6z M806,928.7H193.9V71.2h443.8V206c0,16.9,13.7,30.6,30.6,30.6H806L806,928.7L806,928.7z"/><path d="M260.8,666.4l37.2-27.1c14.2,26.2,32.6,36.8,54.7,36.8c34,0,51-18.4,51-68V378.3H457v234.9c0,60.7-29.4,109.4-98.4,109.4C313.1,722.5,281.9,703.7,260.8,666.4z"/><path d="M482.7,672.9l31.3-36.8c24.4,24.4,57.5,40,90.1,40c40.9,0,63.9-19.3,63.9-47.8c0-30.8-23-40.4-54.2-54.2l-46.9-20.2c-32.6-13.8-68.9-39.5-68.9-88.7c0-53.3,46.9-93.3,111.2-93.3c39.5,0,76.8,16.5,102.5,42.7l-28,34c-21.1-18.8-44.6-30.3-74.5-30.3c-34.5,0-57,16.5-57,43.7c0,29,27.1,40,54.7,51l46.4,19.8c40,17,68.9,41.8,68.9,91.5c0,54.2-45,98.4-119,98.4C556.7,722.5,513.5,704.1,482.7,672.9z"/></g>
</svg>